<svg width="580" height="362" viewBox="0 0 580 362" fill="none" xmlns="http://www.w3.org/2000/svg">
<g clip-path="url(#clip0_1_2)">
<path d="M0.582031 21.3454C0.582031 6.03817 16.6812 -3.9163 30.3772 2.92484L148.547 62.0099V200.676C148.547 220.162 159.567 237.995 176.991 246.707L283.636 300.03V340.708C283.636 356.015 267.537 365.97 253.841 359.115L29.0253 246.707C11.6016 237.995 0.582031 220.175 0.582031 200.676V21.3454ZM148.547 21.3454C148.547 6.03817 164.647 -3.9163 178.342 2.93849L296.513 62.0236V200.69C296.513 220.175 307.532 238.009 324.956 246.721L431.601 300.043V340.722C431.601 356.029 415.502 365.983 401.806 359.129L283.636 300.043V161.377C283.636 141.878 272.616 124.058 255.193 115.346L148.547 62.0236V21.3454ZM296.499 21.3454C296.499 6.03817 312.598 -3.9163 326.294 2.93849L551.11 115.346C568.547 124.058 579.553 141.878 579.553 161.377V340.722C579.553 356.029 563.454 365.983 549.758 359.129L431.588 300.043V161.377C431.588 141.878 420.568 124.058 403.144 115.346L296.499 62.0236V21.3454Z" fill="white"/>
</g>
<defs>
<clipPath id="clip0_1_2">
<rect width="580" height="362" fill="white"/>
</clipPath>
</defs>
</svg>
